<svg version="1.1" id="Layer_1" xmlns="http://www.w3.org/2000/svg" xmlns:xlink="http://www.w3.org/1999/xlink" x="0px" y="0px"
	 width="100%" viewBox="0 0 1024 1024" enable-background="new 0 0 1024 1024" xml:space="preserve">
<path fill="#000000" opacity="1.000000" stroke="none" 
	d="
M419.579285,694.590454 
	C454.543823,670.795593 474.197784,637.828552 479.677277,596.577515 
	C482.906281,572.268982 482.442505,547.747681 480.546265,523.312195 
	C480.055725,516.991089 477.457245,511.077423 474.954193,505.261597 
	C469.345947,492.230957 463.061005,479.658081 453.967896,468.528564 
	C444.237915,456.619598 431.052704,450.217133 417.923920,443.206299 
	C400.198792,433.741028 380.584656,429.021271 362.740356,420.007294 
	C350.990387,414.071838 339.798035,407.158295 328.395386,400.605896 
	C309.584625,389.796417 291.012238,378.576508 274.259918,364.869873 
	C235.501053,333.157440 209.273529,293.430603 200.019241,243.544098 
	C199.080780,238.485245 198.423431,233.368454 197.068558,228.398438 
	C196.178024,225.131775 197.035492,222.040894 197.992554,219.089569 
	C198.917664,216.236847 198.127640,214.933029 195.617096,213.583282 
	C185.703979,208.253632 180.954956,199.506790 179.698090,188.595444 
	C179.527145,187.111435 179.389206,185.621613 179.155563,184.147217 
	C178.256317,178.472351 181.457184,173.894684 187.051926,173.771957 
	C206.199677,173.351929 225.352280,173.066833 244.504227,172.973938 
	C250.525208,172.944733 253.453003,176.107742 253.298798,182.058136 
	C252.975723,194.522247 249.881195,205.791046 238.631943,213.144104 
	C237.308746,214.009003 236.156952,214.931992 236.592636,216.740173 
	C239.548981,229.009933 238.246094,241.774521 241.915527,254.100006 
	C249.244965,278.719330 261.853607,299.950928 278.726013,319.160797 
	C298.593567,341.780823 322.565186,359.043823 348.355499,373.858826 
	C365.816864,383.889374 384.604004,391.326660 403.310486,398.842346 
	C419.355652,405.288818 435.799835,410.780914 451.232635,418.753510 
	C461.807831,424.216675 469.873199,432.643433 478.413818,440.556976 
	C479.347107,441.421753 479.945038,442.826355 481.587402,442.740723 
	C482.994751,441.416412 482.628632,439.653839 482.633179,438.048492 
	C482.674072,423.549622 482.561493,409.049469 482.735016,394.552521 
	C482.779022,390.874329 481.407745,389.038269 477.930054,388.228912 
	C469.023651,386.156219 460.207031,383.662292 451.252106,381.840118 
	C420.029572,375.486816 392.696381,361.077393 366.295532,343.622772 
	C334.085449,322.327515 313.788177,292.582764 300.386536,257.433258 
	C296.744598,247.881287 295.183319,237.526764 292.805786,227.507675 
	C292.094604,224.510712 293.012451,221.498703 293.933868,218.673264 
	C294.865051,215.817963 293.859985,214.517044 291.394012,213.191193 
	C280.612518,207.394501 272.922028,192.768600 274.374451,180.880768 
	C274.907196,176.520416 277.686920,173.755478 282.076691,173.771591 
	C301.401825,173.842499 320.705475,172.216751 340.032104,173.026703 
	C346.394257,173.293335 349.451477,176.890259 349.108307,183.087097 
	C348.443207,195.097366 344.600586,205.541443 334.417694,212.848160 
	C333.284088,213.661591 332.255188,214.546524 332.529968,216.089691 
	C334.730957,228.450409 334.754181,241.156326 339.728394,253.072632 
	C351.042725,280.177582 368.694946,301.819611 393.367126,317.833862 
	C417.315796,333.378448 442.820007,345.245850 470.678711,351.898407 
	C482.545868,354.732239 482.731781,354.731842 482.754486,342.688538 
	C482.763580,337.855774 482.509277,333.013153 482.746033,328.193237 
	C482.925812,324.533081 481.160858,322.550781 478.070618,321.435699 
	C475.254181,320.419495 472.386932,319.509979 469.488586,318.760071 
	C444.791534,312.369720 424.262573,299.745880 409.058746,278.908722 
	C400.203064,266.771790 393.715607,253.641830 390.754883,238.830322 
	C389.305603,231.580093 386.102509,224.524597 389.295715,216.916565 
	C390.097168,215.007065 388.317963,213.920761 386.792694,213.145309 
	C377.142609,208.239075 372.946686,199.664276 370.960693,189.619324 
	C370.510345,187.341507 370.180023,185.034821 369.907318,182.728104 
	C369.362000,178.115005 372.563599,173.753586 377.211365,173.793564 
	C397.020325,173.963882 416.823547,171.713898 436.634583,173.662476 
	C440.724854,174.064774 443.100647,176.190399 443.399323,180.289383 
	C444.356049,193.420090 440.923248,204.695969 429.482666,212.485001 
	C428.375763,213.238602 426.887970,213.973343 427.410645,215.531006 
	C430.084473,223.499710 428.204437,232.081177 431.085663,240.080231 
	C435.983307,253.677444 443.699921,264.971008 456.040405,272.791168 
	C463.000092,277.201538 469.086426,283.099274 477.986176,284.081726 
	C481.875458,284.511047 482.776459,283.337341 482.765350,280.006683 
	C482.716461,265.341858 482.776550,250.676254 482.642517,236.012344 
	C482.601746,231.552094 479.353485,227.295517 480.795776,222.833344 
	C482.893311,216.343994 481.098358,212.552094 475.620239,208.169189 
	C467.312988,201.522751 465.958221,191.026718 465.475800,180.954910 
	C465.264160,176.536865 468.619202,173.785721 472.963440,173.812729 
	C492.456390,173.933960 511.917938,171.822678 531.414490,172.970993 
	C539.292114,173.434967 541.927002,177.559998 540.975647,185.367828 
	C539.896423,194.225128 538.122009,203.036865 530.813782,208.451920 
	C524.556458,213.088333 522.699524,217.596115 525.067688,224.883011 
	C526.356445,228.848450 523.383240,232.941193 523.374390,237.116592 
	C523.342224,252.281952 523.354736,267.447449 523.372253,282.612885 
	C523.373535,283.748505 523.211853,284.980988 524.598999,286.081604 
	C530.051514,285.668335 535.472107,283.930542 540.298218,281.062836 
	C558.149536,270.455200 572.792542,257.055023 577.109680,235.511795 
	C578.412781,229.009476 577.436218,222.227646 579.039978,215.711761 
	C579.413391,214.194763 578.401855,213.255051 577.276062,212.416199 
	C568.434448,205.828049 563.647461,197.150330 563.577698,185.988815 
	C563.566345,184.186447 562.609558,182.269745 562.985474,180.608551 
	C563.969482,176.259354 566.800903,173.623276 571.495850,173.711334 
	C590.302673,174.064041 609.103821,171.984863 627.916077,173.648422 
	C633.241882,174.119385 636.260376,177.566147 636.026001,182.932312 
	C635.482483,195.374985 631.641846,206.079315 620.703125,213.253296 
	C619.279053,214.187241 617.851501,215.495987 618.452759,217.352417 
	C621.486511,226.718201 617.016174,235.075760 614.699158,243.560944 
	C608.472107,266.365509 594.226196,283.947449 577.015808,299.510071 
	C563.790833,311.468842 548.676819,319.325348 530.893982,321.528839 
	C525.628052,322.181366 523.959473,324.707550 524.244385,329.824188 
	C524.623718,336.636169 524.474121,343.488159 524.296936,350.316345 
	C524.197205,354.156342 525.817627,355.237305 529.439392,354.954285 
	C542.098267,353.965240 553.680908,349.230408 565.302734,344.738312 
	C593.737671,333.747406 619.712952,318.678711 640.925781,296.490784 
	C656.791809,279.895416 666.982849,259.927002 672.344482,237.646667 
	C674.010071,230.725357 671.853577,223.358383 673.675781,216.296936 
	C674.176270,214.357544 672.426086,213.413971 671.112976,212.382141 
	C663.304382,206.246277 659.459656,198.077118 658.690491,188.287949 
	C657.608093,174.511612 658.279114,173.584351 672.325806,173.758606 
	C688.321899,173.957016 704.276550,172.458542 720.280640,172.960739 
	C730.738403,173.288910 733.213684,175.827637 732.338623,186.275620 
	C731.396423,197.525009 727.057434,206.832779 717.195923,212.964157 
	C714.470825,214.658432 713.903564,216.741257 714.736633,219.736160 
	C715.729370,223.304672 715.569214,226.944290 714.713867,230.593597 
	C710.022278,250.610580 703.512512,269.826569 692.275696,287.326660 
	C682.403015,302.702240 670.985962,316.662231 657.582581,329.040039 
	C647.896606,337.984863 637.545166,346.039917 626.486084,353.247589 
	C600.680481,370.066101 572.379150,380.183838 542.144165,385.293304 
	C537.554199,386.068939 533.003479,387.074524 528.424500,387.918793 
	C526.034790,388.359436 524.374084,389.401917 524.374451,392.111572 
	C524.376404,409.909576 524.375488,427.707581 524.375488,446.403229 
	C529.572205,443.747131 533.624390,440.500671 537.025513,436.933014 
	C549.156616,424.207916 564.806885,417.590607 580.522522,411.137939 
	C606.715454,400.383545 632.908569,389.622162 657.725525,375.912384 
	C685.939575,360.325928 711.634460,341.491455 731.998779,316.102722 
	C751.027954,292.378632 765.564514,266.507721 770.308716,235.948563 
	C770.568848,234.272827 770.675171,232.685501 770.198669,231.026321 
	C769.259644,227.756836 769.166260,224.287994 770.035156,221.134323 
	C771.254883,216.706940 770.415405,213.630585 766.756104,210.705780 
	C757.235840,203.096451 755.851074,191.987198 755.257446,180.946411 
	C755.035278,176.814606 758.262695,173.699615 762.753479,173.768738 
	C781.578979,174.058578 800.373535,171.960144 819.200317,173.074448 
	C828.023743,173.596680 830.710266,177.597107 829.147949,186.332062 
	C827.612000,194.919174 826.209717,203.317062 819.281738,209.676987 
	C812.117432,216.253799 813.200256,216.524994 812.032104,226.301697 
	C810.720093,237.281723 807.899536,248.142624 805.015259,258.861603 
	C797.865051,285.434387 783.098022,307.752075 766.179993,329.116608 
	C750.942688,348.358643 732.778076,364.367035 714.432129,380.321594 
	C705.920349,387.723846 696.068787,392.967651 685.972717,397.767151 
	C681.292847,399.991852 676.937561,402.689484 672.534180,405.397644 
	C655.760681,415.713470 638.257019,424.596008 619.617432,431.102509 
	C601.949951,437.269653 584.827271,444.909943 569.470337,455.461395 
	C542.758667,473.814331 527.732910,499.332458 527.258484,532.319214 
	C526.975647,551.979370 526.722107,571.672241 527.529968,591.306213 
	C528.244019,608.661377 534.172729,624.895386 542.220215,640.165222 
	C556.485901,667.234131 576.244446,688.886108 604.461487,702.119568 
	C622.179626,710.429199 640.171509,715.718445 659.954285,710.976379 
	C663.946655,710.019409 668.215027,709.931091 672.356384,709.929565 
	C686.856201,709.924255 692.505554,702.172119 695.437622,688.961487 
	C698.077026,677.069641 694.477112,666.277771 685.864502,657.276489 
	C674.613953,645.518188 657.911865,648.854004 652.216248,664.139771 
	C649.039246,672.666077 650.288818,679.081848 656.186096,683.492249 
	C659.017212,685.609436 661.902344,687.491333 663.874512,682.264648 
	C664.855835,679.663940 667.497253,679.507751 669.894104,680.003357 
	C672.658447,680.574890 674.080688,682.431152 674.332336,685.290283 
	C675.052734,693.476135 666.041138,700.585632 656.814758,699.011353 
	C638.509827,695.888000 633.222717,681.817200 634.945312,666.567932 
	C636.077698,656.543274 641.109802,648.354126 648.448547,641.612671 
	C655.276550,635.340454 663.746643,633.444763 672.592346,634.286621 
	C693.468384,636.273376 708.910034,652.061340 711.195557,673.786072 
	C713.096252,691.853088 709.040405,708.495972 695.493530,721.251282 
	C685.170654,730.971069 672.736023,735.497192 658.328979,730.559631 
	C657.571838,730.300049 656.675903,730.234314 655.877747,730.336792 
	C629.329041,733.746826 605.993591,725.467712 584.373291,710.810852 
	C579.686646,707.633667 574.830750,704.707397 570.091187,701.606812 
	C560.101196,695.071472 551.535583,687.288635 544.944153,677.039490 
	C533.213440,658.798889 521.705688,640.543457 513.790344,620.198486 
	C510.333832,611.314148 508.845825,602.250977 508.835999,592.892212 
	C508.732574,494.399353 508.759186,395.906250 508.598663,297.413483 
	C508.568268,278.760101 507.309692,260.118927 507.602386,241.451706 
	C507.637573,239.208221 507.894440,236.313568 504.373779,236.413498 
	C501.386505,236.498276 499.491547,237.938873 499.305847,241.348892 
	C498.907745,248.657974 498.277588,255.939407 498.274109,263.283020 
	C498.225586,365.608734 498.252380,467.935242 497.780151,570.259277 
	C497.709045,585.669678 498.998718,601.338013 495.302795,616.540833 
	C490.952576,634.434998 484.332672,651.284058 472.944244,666.224792 
	C460.141449,683.021118 446.559906,698.715332 428.615051,710.354431 
	C410.849579,721.877136 391.580170,728.329468 370.517883,729.274414 
	C363.224945,729.601624 355.860596,729.820435 348.582764,728.451233 
	C347.382568,728.225403 345.820038,727.748840 344.917725,729.186340 
	C341.858795,734.059326 336.971985,733.935852 332.448792,733.039551 
	C320.358002,730.643738 310.087494,725.287476 304.674408,713.342102 
	C300.897369,705.007141 296.870941,696.724548 296.259338,687.374634 
	C295.102051,669.683167 302.162567,649.513428 319.758423,639.120422 
	C339.392548,627.523560 364.860382,640.705322 369.460419,663.393860 
	C373.130432,681.495605 361.087433,695.540527 348.531769,697.883667 
	C344.510376,698.634155 340.573639,698.678345 336.824524,696.796082 
	C331.224579,693.984619 328.816528,687.681213 331.129028,681.914368 
	C332.819153,677.699707 335.880188,678.487183 338.978485,679.916321 
	C342.782227,681.670654 346.356140,683.624695 350.513123,680.317566 
	C352.956512,678.373657 354.626343,676.101318 354.474060,673.215454 
	C354.054047,665.255310 351.793579,657.922058 344.168121,653.891724 
	C337.336151,650.280701 331.010193,652.312561 325.025299,656.555298 
	C312.728302,665.272888 310.713043,676.188599 315.104980,692.642395 
	C318.563629,705.599731 322.125671,708.103882 335.637390,707.935364 
	C342.601379,707.848572 349.179413,709.606201 355.859863,710.818298 
	C377.362488,714.719910 396.211945,707.480896 414.485107,697.478088 
	C416.091003,696.599060 417.672241,695.674927 419.579285,694.590454 
M529.767944,475.316528 
	C532.382019,472.081451 534.898621,468.761566 537.627869,465.626740 
	C546.748535,455.150513 556.632080,445.288361 568.983032,438.870453 
	C584.089417,431.020752 599.804993,424.386932 615.758362,418.295013 
	C633.474854,411.529846 650.432678,403.059479 667.055054,393.856720 
	C687.261719,382.669556 706.022766,369.614075 723.098206,354.048828 
	C734.839050,343.346375 744.801514,331.046265 755.159119,319.115845 
	C773.964172,297.455170 788.542908,273.514221 793.225159,244.592697 
	C793.993225,239.848038 794.471008,235.073212 795.389404,230.331802 
	C797.214966,220.907196 798.120605,220.402496 787.781433,219.987503 
	C787.493408,219.975952 787.194275,220.242065 786.682922,220.479752 
	C785.318665,224.683838 787.721191,228.858261 787.257446,233.148087 
	C785.263977,251.588745 779.973022,269.188232 770.856201,285.154907 
	C742.759338,334.362183 702.187561,370.361938 651.490112,395.203766 
	C627.558105,406.930542 602.848511,416.906342 578.343628,427.329376 
	C564.086548,433.393585 550.980713,441.081787 539.967224,452.036591 
	C533.645081,458.325043 530.000183,466.543427 524.926086,473.733734 
	C522.920654,476.575562 523.209167,478.683960 525.618652,481.708008 
	C526.333862,480.677246 526.823792,480.000580 527.282349,479.303284 
	C528.013123,478.192017 528.723145,477.067017 529.767944,475.316528 
M231.500854,271.866455 
	C226.039047,256.427765 221.652237,240.778793 222.709915,224.154404 
	C222.942215,220.503143 221.720062,218.769104 217.922394,219.298431 
	C216.321335,219.521591 214.574295,218.891495 213.035461,220.198318 
	C212.754150,226.337936 214.587646,232.271317 215.333252,238.334885 
	C217.126389,252.917648 220.539520,267.018982 226.739151,280.454620 
	C235.336060,299.085541 247.405899,315.220062 260.328674,331.044312 
	C276.606293,350.976593 296.742096,365.963715 317.935181,379.859192 
	C325.025940,384.508301 332.840271,388.023010 340.015625,392.471893 
	C354.532806,401.472870 370.103668,408.173431 385.712402,414.784698 
	C399.656219,420.690735 414.037476,425.557922 428.033630,431.347748 
	C449.245056,440.122345 465.133545,455.108765 476.998413,474.587677 
	C478.388550,476.869843 479.571564,479.430908 482.036285,481.399536 
	C483.510406,477.430847 482.120361,474.497803 480.539551,471.825409 
	C467.475128,449.739655 450.741425,431.885468 425.462738,423.641479 
	C415.030457,420.239227 404.758331,416.312683 394.529816,412.325836 
	C372.802155,403.856934 352.012115,393.351166 331.506561,382.327026 
	C322.880798,377.689697 314.324188,372.637543 306.607941,366.650391 
	C286.438873,351.000793 267.809845,333.787262 253.174088,312.502930 
	C244.527557,299.928619 236.916245,286.967133 231.500854,271.866455 
M566.752563,358.343079 
	C564.436462,359.273163 562.154114,360.300446 559.798584,361.116730 
	C549.114441,364.818878 538.675049,369.292999 527.475037,371.384918 
	C526.029602,371.654907 524.200623,372.030457 524.617004,374.072449 
	C525.010864,376.004303 526.743164,375.850677 528.278442,375.604614 
	C529.593689,375.393799 530.909668,375.170776 532.209106,374.880402 
	C544.641235,372.102814 557.048157,369.847046 569.151367,365.108887 
	C586.924072,358.151215 604.194946,350.536499 619.907166,339.762360 
	C639.049316,326.636108 656.604126,311.723816 670.791870,293.078186 
	C685.911499,273.207947 696.310181,251.494659 698.686096,226.351151 
	C699.015747,222.862579 699.568909,219.684875 694.400635,219.265610 
	C689.311523,218.852753 689.095154,221.636185 689.287781,225.397339 
	C689.736023,234.148849 687.774048,242.545975 685.229004,250.838287 
	C680.718384,265.534821 672.330933,278.187561 663.925720,290.785309 
	C656.190552,302.378876 646.612305,312.479492 635.307373,320.508209 
	C614.136963,335.543335 592.753235,350.384644 566.752563,358.343079 
M329.089996,267.296967 
	C324.389008,257.862488 321.323151,247.871277 319.134186,237.602402 
	C318.083252,232.672409 318.851654,227.636337 318.632416,222.653107 
	C318.403198,217.443146 314.492493,219.645935 311.916779,219.368759 
	C309.483459,219.106918 308.102203,220.158752 308.545746,222.894257 
	C311.260193,239.635605 314.462616,256.090668 322.216125,271.574921 
	C335.311768,297.727753 355.893890,316.664673 378.924988,333.540680 
	C408.399811,355.138306 441.589020,367.662781 477.361908,373.870544 
	C478.717163,374.105713 480.251038,375.061951 481.562378,373.453064 
	C481.757050,370.902039 479.663422,370.502960 478.014221,370.161560 
	C468.508209,368.193878 459.761993,363.934814 450.527832,361.189178 
	C421.776733,352.640350 396.087311,338.261871 372.014648,320.645752 
	C353.132324,306.827881 339.786133,288.627899 329.089996,267.296967 
M590.883240,261.407440 
	C595.575989,254.766769 598.405518,247.388428 599.888245,239.409653 
	C600.767212,234.679932 601.984253,230.011475 603.108521,225.329697 
	C603.541138,223.528122 604.290100,221.620102 602.364502,220.342758 
	C600.476990,219.090698 598.184021,219.021439 596.070557,219.525070 
	C593.576355,220.119400 594.181396,222.432510 594.275513,224.119766 
	C594.771729,233.018707 592.395935,241.400650 588.714111,249.206009 
	C576.740051,274.590698 556.760925,291.340393 530.804993,301.320740 
	C529.254639,301.916870 527.655884,302.405365 526.154297,303.104401 
	C524.787048,303.740906 524.152344,304.842926 524.878479,306.376434 
	C525.470703,307.627228 526.067261,308.576172 527.861206,308.308380 
	C533.807983,307.420898 539.780457,306.152252 544.752808,302.876312 
	C561.984497,291.523529 579.665771,280.569885 590.883240,261.407440 
M409.541504,249.972565 
	C415.143280,263.821777 423.211884,275.791687 435.554932,284.604828 
	C448.200714,293.634094 461.148987,302.050964 476.402710,306.098083 
	C478.271393,306.593872 480.672607,307.703827 481.513611,305.053101 
	C482.249939,302.732483 479.921204,302.087677 478.185089,301.538788 
	C467.650726,298.208130 458.135406,293.184998 449.022278,286.761932 
	C426.940094,271.198212 413.893921,250.870850 412.892700,223.504776 
	C412.772369,220.215729 411.445587,219.269196 408.313843,219.248367 
	C404.789307,219.224915 403.880066,220.960403 404.330902,223.914978 
	C405.629211,232.422745 406.188904,241.079636 409.541504,249.972565 
M709.951660,189.368698 
	C701.652283,189.356033 693.350159,189.218414 685.055054,189.399551 
	C682.215393,189.461563 677.875549,187.747177 676.837341,190.736176 
	C675.560669,194.411667 679.405090,197.190750 682.020813,199.649994 
	C684.112305,201.616409 686.801453,202.615204 689.745117,202.642365 
	C692.898438,202.671448 696.056274,202.765457 699.204895,202.643875 
	C706.214722,202.373215 712.193848,197.299011 713.993652,190.218552 
	C713.147766,189.109619 711.890076,189.523819 709.951660,189.368698 
M217.421783,202.660141 
	C228.434860,202.563004 234.462326,198.386932 235.241241,189.983337 
	C222.699570,189.983337 210.197922,189.983337 197.492416,189.983337 
	C200.380432,198.852524 206.244431,202.599121 217.421783,202.660141 
M804.511292,200.161774 
	C807.845642,197.534561 810.146240,194.279160 811.069031,189.830688 
	C798.383240,189.830688 786.065552,189.830688 773.922302,189.830688 
	C772.980469,192.232117 774.422668,193.391479 775.211243,194.794785 
	C780.530762,204.261200 794.934204,204.574173 804.511292,200.161774 
M297.658600,197.862808 
	C305.935181,204.480713 314.988922,203.784241 324.026123,200.147690 
	C328.303528,198.426514 330.840302,194.783661 331.347961,189.876923 
	C318.364105,189.876923 306.034210,189.876923 293.381897,189.876923 
	C293.742462,193.295547 295.577240,195.255035 297.658600,197.862808 
M485.240631,192.571136 
	C490.251282,201.714554 499.418732,204.613129 512.120605,201.070053 
	C518.543945,199.278320 522.064636,195.294891 521.929199,189.374893 
	C510.349152,189.374893 498.749268,189.362183 487.149445,189.389740 
	C485.562836,189.393509 484.610046,190.125641 485.240631,192.571136 
M586.866516,189.314209 
	C584.965393,189.548843 582.880554,188.719727 580.822632,190.525742 
	C583.194214,196.864487 587.671082,200.983719 594.286255,202.158829 
	C602.452576,203.609497 610.316162,203.076920 615.742310,195.420776 
	C616.675598,194.103897 618.069153,192.636581 617.174316,190.932220 
	C616.302734,189.272171 614.363281,189.416092 612.702515,189.407730 
	C604.393921,189.365891 596.085205,189.344833 586.866516,189.314209 
M418.560150,200.325317 
	C422.569855,198.146362 425.024597,194.937943 425.559326,189.978973 
	C413.165039,189.978973 401.102417,189.978973 388.469147,189.978973 
	C390.584534,195.890671 393.833771,199.846115 399.165375,201.117950 
	C405.325500,202.587448 411.659393,202.721802 418.560150,200.325317 
M503.486511,219.178879 
	C501.428284,219.548630 498.626984,218.352203 498.224060,222.019043 
	C497.765228,226.194565 498.910858,226.887253 504.468750,225.915237 
	C506.715637,225.522293 508.709961,225.308395 508.697296,222.285095 
	C508.683838,219.077682 506.638062,219.012680 503.486511,219.178879 
z"/>
<path fill="#000000" opacity="1.000000" stroke="none" 
	d="
M754.491028,591.497681 
	C760.268799,586.366699 765.130005,580.929749 769.020081,574.625061 
	C771.120239,571.221130 771.032959,568.284119 768.523010,565.029541 
	C760.532410,554.668518 750.990601,545.876648 741.203857,537.300720 
	C723.029175,521.374756 703.375183,507.224548 685.588562,490.823242 
	C681.031250,486.620850 678.873413,482.403870 680.424438,475.912628 
	C682.175293,468.584534 684.347412,461.488556 687.294006,454.583557 
	C688.790649,451.076477 691.332886,448.495087 694.264954,446.246552 
	C703.550964,439.125153 713.534546,433.160492 724.038391,427.991547 
	C731.607239,424.266876 739.716797,423.795074 747.851685,423.257660 
	C759.159546,422.510651 770.461609,422.015015 781.760437,423.609344 
	C784.909790,424.053711 786.530640,425.406281 786.703003,428.650085 
	C787.613892,445.792969 788.057556,462.924591 786.360352,480.054474 
	C786.066956,483.014923 783.944580,483.319183 781.887878,483.877838 
	C771.997437,486.564178 771.997742,486.409302 770.526978,476.316315 
	C768.800842,464.471527 767.274231,452.589417 764.468689,440.915710 
	C763.484802,436.821686 761.547607,435.178955 757.199524,435.306274 
	C743.136108,435.718109 729.640381,437.966919 717.926270,446.404724 
	C709.278809,452.633575 707.125732,462.448364 704.708496,471.942566 
	C704.169495,474.059326 706.437561,475.796631 707.843506,477.406464 
	C716.756348,487.612122 727.095459,496.324036 737.400818,505.023712 
	C755.990967,520.717285 774.757324,536.204468 793.597473,551.597473 
	C796.515381,553.981445 796.946960,556.094482 796.141296,559.659668 
	C790.039673,586.660217 770.226501,600.396484 747.081177,611.035767 
	C741.846191,613.442139 736.437988,614.453369 730.628845,614.440430 
	C714.287292,614.403992 697.993103,613.986633 681.830261,611.295349 
	C674.701111,610.108276 674.559753,609.943726 675.556396,602.721436 
	C677.538086,588.359619 680.831970,574.275574 684.637268,560.307373 
	C685.274414,557.968750 685.051453,554.778748 689.274231,555.232300 
	C697.036865,556.065918 699.955261,557.612183 700.053955,562.224731 
	C700.282104,572.887390 700.491455,583.562073 700.206604,594.218445 
	C700.087646,598.668945 701.939758,600.206482 705.848633,600.490234 
	C717.685303,601.349792 729.472900,601.431580 741.119507,598.610413 
	C746.081543,597.408508 750.522156,595.293640 754.491028,591.497681 
z"/>
<path fill="#000000" opacity="1.000000" stroke="none" 
	d="
M300.135071,604.065796 
	C292.517578,616.082092 283.900360,626.852966 274.513916,637.047668 
	C271.803833,639.991150 269.136597,640.887878 265.248657,639.487366 
	C255.823776,636.092407 246.944427,631.887146 239.559891,625.228394 
	C240.503296,622.708191 242.414383,622.732422 243.865570,622.116882 
	C258.483673,615.916748 272.643951,608.989746 284.478516,598.055725 
	C287.513092,595.252075 288.705536,592.170044 288.838501,588.004700 
	C289.502777,567.196106 289.987640,546.385010 289.610199,525.571899 
	C289.112335,498.117004 287.556580,470.703308 285.921021,443.294495 
	C285.691681,439.451324 284.271545,438.080597 280.441772,438.145172 
	C271.285065,438.299622 262.120605,438.222870 252.963348,438.038544 
	C247.073654,437.919983 246.791702,437.416870 247.587418,431.602509 
	C248.755646,423.065948 248.764267,422.829010 257.476166,423.146576 
	C281.953461,424.038818 306.413483,423.720001 330.878845,422.752228 
	C339.667847,422.404572 340.024933,422.910339 340.710297,432.678528 
	C333.780884,435.565308 326.218048,435.440430 318.874084,436.184204 
	C310.254242,437.057220 310.241455,436.794952 309.980713,445.485657 
	C309.136993,473.606934 307.595215,501.719147 308.374512,529.865356 
	C308.775146,544.334534 309.310577,558.813354 310.358917,573.246216 
	C311.004883,582.139465 309.104370,590.026978 304.186432,597.339478 
	C302.794800,599.408813 301.605011,601.613770 300.135071,604.065796 
z"/>
<path fill="#000000" opacity="1.000000" stroke="none" 
	d="
M470.158661,742.636353 
	C461.768402,722.147034 464.785461,702.791992 474.417511,684.082520 
	C478.908295,675.359558 483.519531,666.621948 490.344269,659.368347 
	C494.174438,655.297485 498.447540,652.130005 504.353363,651.617737 
	C511.543243,650.994080 516.673157,654.661255 520.543701,659.821350 
	C533.883179,677.604980 543.873047,696.735291 542.329346,719.957581 
	C541.346863,734.736389 537.408325,748.478699 527.589050,759.974792 
	C523.372253,764.911682 519.036926,769.785706 514.363708,774.281006 
	C511.252289,777.273987 510.765747,780.415710 511.845337,784.215332 
	C512.525574,786.609436 513.379761,788.942017 513.363831,791.511841 
	C513.326599,797.500549 509.510498,801.930664 503.896271,802.313904 
	C497.765991,802.732239 493.432007,799.038086 492.715332,792.807617 
	C492.302002,789.214539 493.076019,785.828674 494.626556,782.633789 
	C496.261505,779.264832 495.586731,776.706299 492.661804,774.323242 
	C482.366364,765.935303 474.724274,755.604187 470.158661,742.636353 
M501.776825,673.315247 
	C497.745056,680.204102 491.403778,685.446594 488.059601,692.850403 
	C477.289703,716.694641 482.206970,738.153564 497.938019,757.904114 
	C503.570618,764.975830 503.993317,765.060364 509.789154,758.102722 
	C534.135742,728.875793 531.455444,701.651917 508.028351,673.630371 
	C506.409332,671.693787 504.572052,670.268799 501.776825,673.315247 
z"/>
<path fill="#000000" opacity="1.000000" stroke="none" 
	d="
M596.995728,760.659546 
	C624.610840,759.367371 651.728455,761.100586 678.844299,760.624390 
	C693.484924,760.367310 708.122620,759.940918 722.763611,759.711975 
	C729.885010,759.600586 733.320923,762.252808 733.317810,767.450989 
	C733.314819,772.431946 728.833801,776.314636 722.651978,776.302490 
	C679.032959,776.216675 635.409973,776.360352 591.797546,775.758057 
	C577.803711,775.564880 563.860962,775.777771 549.898132,776.299072 
	C547.761230,776.378906 545.487000,776.702942 543.635315,775.232239 
	C540.973389,773.118103 538.233398,770.601379 538.955200,766.990295 
	C539.705383,763.237427 543.094238,761.487000 546.640137,760.727722 
	C552.716309,759.426697 558.922302,759.597473 565.053406,760.049683 
	C575.532776,760.822693 586.015015,760.536438 596.995728,760.659546 
z"/>
<path fill="#000000" opacity="1.000000" stroke="none" 
	d="
M349.000061,759.672058 
	C383.132080,759.672974 416.764038,759.673645 450.396027,759.676636 
	C452.060852,759.676758 453.730957,759.616699 455.389526,759.724304 
	C460.188507,760.035583 464.105560,763.388245 464.066986,767.069885 
	C464.019806,771.574036 459.795074,776.095642 455.252991,776.285095 
	C451.929382,776.423767 448.581360,776.489136 445.267242,776.257507 
	C426.641541,774.955933 408.013947,775.643250 389.374298,775.787964 
	C362.411224,775.997314 335.443085,775.505859 308.476807,775.395020 
	C303.324524,775.373840 298.171722,775.775574 293.017090,775.890137 
	C291.033905,775.934204 288.994110,775.970276 287.068695,775.576782 
	C282.211365,774.584229 278.979340,770.606445 279.433838,766.530945 
	C279.861145,762.699280 283.637299,759.710205 288.561951,759.694885 
	C308.541138,759.632874 328.520660,759.671021 349.000061,759.672058 
z"/>
<path fill="#000000" opacity="1.000000" stroke="none" 
	d="
M784.962524,165.673523 
	C773.520630,160.607391 768.690125,148.569122 773.528870,137.700226 
	C776.908508,130.108871 782.551270,123.820068 785.671204,115.967834 
	C787.534851,111.277397 795.370361,111.142555 798.307495,115.694115 
	C802.894714,122.802704 807.857849,129.770355 811.174316,137.615540 
	C817.156433,151.766739 808.211670,170.468887 784.962524,165.673523 
M787.328003,146.231339 
	C787.849609,149.247467 789.399536,151.743042 792.516113,151.939758 
	C794.806213,152.084274 796.124207,149.812119 796.871826,147.746124 
	C798.745850,142.567627 794.509888,140.205627 791.995422,136.605484 
	C789.174866,139.307831 787.741089,142.121872 787.328003,146.231339 
z"/>
<path fill="#000000" opacity="1.000000" stroke="none" 
	d="
M699.908691,166.283386 
	C690.891724,167.709518 683.470947,165.659073 678.562256,158.075928 
	C673.514404,150.277878 673.256104,142.118179 678.308899,134.109467 
	C681.936218,128.360138 686.091431,122.998375 688.925720,116.687744 
	C691.035278,111.991035 697.163025,111.134369 700.202026,115.082367 
	C706.382629,123.111824 712.522400,131.429504 715.111938,141.398254 
	C718.182312,153.218445 712.417114,162.313156 699.908691,166.283386 
M695.243896,137.781677 
	C691.170166,139.077942 690.436279,142.578629 690.516846,146.010635 
	C690.580139,148.706223 692.221741,151.713837 695.272278,151.300491 
	C698.541626,150.857498 700.102417,147.990311 699.461670,144.526794 
	C698.995422,142.006439 697.361572,140.066162 695.243896,137.781677 
z"/>
<path fill="#000000" opacity="1.000000" stroke="none" 
	d="
M519.878296,158.751312 
	C513.063110,166.154587 504.861176,168.081665 495.999603,165.034882 
	C487.625153,162.155594 483.839569,155.125702 482.765106,146.643311 
	C482.169617,141.942566 484.117889,137.799850 486.550995,133.988220 
	C490.025482,128.545227 493.877136,123.412666 496.466766,117.357857 
	C498.750793,112.017494 505.714020,110.791443 508.743866,115.153687 
	C514.031372,122.766373 519.739807,130.248154 523.001282,139.062866 
	C525.546692,145.942368 524.232544,152.464737 519.878296,158.751312 
M500.584076,149.764572 
	C503.032379,152.558258 505.094543,151.707687 506.995605,149.103149 
	C509.849915,145.192612 508.506470,140.948807 503.056030,136.710617 
	C497.991455,140.535385 497.176819,144.008636 500.584076,149.764572 
z"/>
<path fill="#000000" opacity="1.000000" stroke="none" 
	d="
M620.112854,147.747253 
	C617.247498,160.957779 608.893677,167.801910 597.516052,166.642288 
	C583.468140,165.210510 575.188049,149.737289 581.679382,136.649567 
	C585.136292,129.679871 590.406433,123.773842 593.409119,116.433388 
	C595.031921,112.466362 601.709534,111.395203 604.058960,114.877975 
	C610.835999,124.923943 619.556091,134.169083 620.112854,147.747253 
M600.176514,151.365494 
	C605.600220,147.005096 604.967102,141.285934 598.670044,137.757065 
	C593.159668,143.218079 592.996704,149.269485 600.176514,151.365494 
z"/>
<path fill="#000000" opacity="1.000000" stroke="none" 
	d="
M292.109650,141.741730 
	C293.362366,137.433502 295.430695,134.021805 297.855194,130.828369 
	C300.488251,127.360207 302.764801,123.776039 303.884033,119.467018 
	C304.854431,115.731277 307.649475,113.455154 311.372559,113.003990 
	C314.905762,112.575829 317.460999,114.838234 318.912750,117.787704 
	C322.793793,125.672699 329.140045,132.182571 331.432098,140.969193 
	C333.577026,149.191864 331.914062,156.405457 325.447083,161.731049 
	C318.838654,167.173126 310.774658,168.444183 302.905975,165.089905 
	C295.145264,161.781631 291.802277,154.953827 291.654572,146.609528 
	C291.628235,145.122498 291.855042,143.630966 292.109650,141.741730 
M307.946838,149.353531 
	C310.189240,152.372467 312.713257,152.799728 315.301636,149.898102 
	C318.031830,146.837540 316.371918,141.715302 311.379181,137.696136 
	C308.012970,140.635132 306.658081,144.235428 307.946838,149.353531 
z"/>
<path fill="#000000" opacity="1.000000" stroke="none" 
	d="
M398.676300,121.710510 
	C399.208069,120.087532 399.555939,118.785942 400.134827,117.596794 
	C403.093689,111.518532 410.027008,110.969933 413.656067,116.714806 
	C417.470428,122.753006 421.191986,128.885117 424.430328,135.242981 
	C428.532135,143.295990 429.247589,151.603577 423.321075,159.195114 
	C417.764801,166.312393 409.784149,167.255386 401.584778,166.204178 
	C391.831909,164.953796 384.290527,151.778122 387.270935,141.856644 
	C388.732513,136.991058 391.374603,132.781342 394.545532,128.882767 
	C396.234436,126.806305 397.897369,124.738106 398.676300,121.710510 
M408.187469,138.689987 
	C405.109497,138.055618 401.639923,142.832123 402.535461,146.789368 
	C403.091431,149.246017 404.228668,151.937485 407.300354,151.504837 
	C410.475922,151.057541 411.988464,148.642532 411.634369,145.358414 
	C411.376129,142.963150 409.873901,141.134659 408.187469,138.689987 
z"/>
<path fill="#000000" opacity="1.000000" stroke="none" 
	d="
M209.866776,115.918045 
	C216.268677,111.067856 220.102768,111.869469 223.846771,118.333923 
	C226.508057,122.928917 229.338898,127.425606 232.087128,131.970367 
	C235.811142,138.128754 237.796829,144.650085 236.100494,151.891052 
	C234.002365,160.847137 226.107025,166.336151 215.361801,166.358185 
	C206.625229,166.376099 199.019974,160.283447 196.658722,152.099319 
	C194.885406,145.952972 196.358429,140.603836 199.429962,135.483078 
	C203.176117,129.237595 207.343109,123.231224 209.866776,115.918045 
M217.189041,151.641800 
	C222.491333,147.851135 222.071625,142.431366 216.119446,137.830215 
	C209.592560,144.019684 209.716553,149.038208 217.189041,151.641800 
z"/>
<path fill="#000000" opacity="1.000000" stroke="none" 
	d="
M754.615601,759.758179 
	C758.827209,761.045776 761.461548,763.561646 761.822021,767.555908 
	C762.129822,770.965881 760.012024,773.478455 757.244629,775.326965 
	C754.239685,777.334351 751.192322,777.832642 747.991150,775.625671 
	C744.864075,773.469727 743.015625,770.727844 743.737976,766.807739 
	C744.453430,762.924988 747.301636,760.985291 750.744446,759.843445 
	C751.797241,759.494324 753.046814,759.738831 754.615601,759.758179 
z"/>
<path fill="#000000" opacity="1.000000" stroke="none" 
	d="
M261.536743,759.931763 
	C266.609955,763.672546 268.075958,769.211243 264.996613,772.951538 
	C262.917175,775.477295 260.405273,778.454895 256.595428,776.591553 
	C253.157242,774.910034 249.598633,772.417053 249.896057,768.083557 
	C250.199036,763.669617 253.804840,761.343628 257.679626,759.865845 
	C258.692780,759.479431 259.979370,759.810059 261.536743,759.931763 
z"/>
</svg>